<svg width="95" height="110" viewBox="0 0 95 110" fill="none" xmlns="http://www.w3.org/2000/svg">
<path d="M94.9948 32.3397C94.9941 30.4902 94.6101 28.8558 93.8337 27.4535C93.0709 26.0737 91.9287 24.9177 90.3966 24.0036C77.7495 16.4908 65.0901 9.00089 52.4472 1.48039C49.0387 -0.546875 45.7339 -0.472585 42.3507 1.58379C37.3168 4.64192 12.1137 19.5179 4.6035 23.9994C1.51059 25.8444 0.00557549 28.6674 0.00483209 32.3363C0 47.4451 0.00483209 62.5538 0 77.6626C0 79.4716 0.368354 81.0746 1.11064 82.4558C1.87374 83.8769 3.03195 85.0648 4.59941 85.9995C12.11 90.4811 37.3164 105.356 42.3492 108.415C45.7339 110.473 49.0387 110.546 52.4483 108.519C65.0916 100.998 77.7517 93.5078 90.4006 85.9949C91.9681 85.0606 93.1263 83.8719 93.8894 82.452C94.6306 81.0704 94.9997 79.4678 94.9997 77.6584C94.9997 77.6584 94.9997 47.4489 94.9948 32.3397Z" fill="#A179DC"/>
<path d="M47.6459 54.8525L1.11133 82.4561C1.87443 83.8772 3.03264 85.0651 4.6001 85.9998C12.1107 90.4813 37.3171 105.356 42.3499 108.415C45.7346 110.473 49.0394 110.546 52.449 108.519C65.0923 100.998 77.7524 93.5081 90.4013 85.9952C91.9688 85.0609 93.127 83.8722 93.8901 82.4523L47.6459 54.8525Z" fill="#280068"/>
<path d="M94.9957 32.3414C94.995 30.4918 94.611 28.8574 93.8345 27.4551L47.646 54.8543L93.8903 82.4537C94.6314 81.0721 94.9998 79.4695 95.0005 77.6601C95.0005 77.6601 95.0005 47.4505 94.9957 32.3414" fill="#390091"/>
<path d="M75.0428 44.5342V49.6939H80.0511V44.5342H82.5553V49.6939H87.5636V52.2737H82.5553V57.433H87.5636V60.0128H82.5553V65.1725H80.0511V60.0128H75.0428V65.1725H72.5387V60.0128H67.5308V57.433H72.5387V52.2737H67.5308V49.6939H72.5387V44.5342H75.0428ZM80.0511 52.2733H75.0428V57.433H80.0511V52.2733Z" fill="white"/>
<path d="M47.7479 18.6215C60.8109 18.6215 72.2157 25.9302 78.3246 36.7941L78.2651 36.6896L62.8953 45.8066C59.8675 40.5247 54.3165 36.9599 47.9482 36.8864L47.7475 36.8853C38.0368 36.8853 30.1642 44.9959 30.1642 55.0001C30.1611 58.1533 30.9607 61.2523 32.4833 63.9876C35.5141 69.4387 41.2119 73.1153 47.7479 73.1153C54.3243 73.1153 60.0544 69.392 63.0697 63.8827L62.9965 64.0148L78.3428 73.1739C72.3008 83.9459 61.0521 91.2321 48.1411 91.3772L47.7479 91.3795C34.6436 91.3795 23.2064 84.0256 17.1128 73.1042C14.138 67.7726 12.436 61.5916 12.436 55.0001C12.436 34.9089 28.2452 18.6211 47.7475 18.6211L47.7479 18.6215Z" fill="white"/>
</svg>
