<svg width="90" height="90" viewBox="0 0 90 90" fill="none" xmlns="http://www.w3.org/2000/svg">
<path d="M45 0C32.9996 0 25.4998 10.0002 22.4994 29.9987C27 19.9985 32.2501 16.2499 38.2497 18.749C41.6733 20.1749 44.1199 24.3157 46.8288 28.8974C51.2405 36.361 56.3465 44.9991 67.5006 44.9991C79.4998 44.9991 87.0008 34.9989 90 14.9984C85.5006 24.9986 80.2505 28.7492 74.2497 26.2501C70.8273 24.8242 68.3806 20.6834 65.6718 16.1016C61.2601 8.63808 56.1529 0 45 0V0ZM22.4994 44.9991C10.5002 44.9991 2.99925 54.9993 0 74.9997C4.49944 64.9995 9.74953 61.2489 15.7503 63.7499C19.1727 65.1777 21.6194 69.3166 24.3283 73.8965C28.7399 81.36 33.8471 90 45 90C57.0004 90 64.5002 79.9998 67.5006 59.9994C63 69.9996 57.7499 73.7501 51.7503 71.2491C48.3268 69.8251 45.8801 65.6824 43.1712 61.1026C38.7595 53.639 33.6535 44.9991 22.4994 44.9991V44.9991Z" fill="#06B6D4"/>
</svg>
