<svg width="145" height="139" viewBox="0 0 145 139" fill="none" xmlns="http://www.w3.org/2000/svg">
<path fill-rule="evenodd" clip-rule="evenodd" d="M45.2248 23.7729C47.5673 24.3903 50.6099 26.0443 52.8716 27.0588C54.9448 27.985 55.0256 27.7424 55.7795 29.5507C56.2373 30.6755 56.6681 31.8663 57.0989 32.969C58.9836 37.6662 60.9492 42.4518 62.8339 47.1049C65.4188 53.5885 96.1404 129.341 96.7597 132.075C95.0096 131.546 92.6671 130.156 90.9439 129.296C87.7667 127.687 88.1167 128.37 86.6089 125.327L70.6423 94.0557C68.0574 88.8733 51.1215 54.8455 49.129 52.7946C47.8097 51.9566 45.0364 55.2425 43.5555 56.9185C39.2744 61.7481 13.4261 89.7554 12.4838 91.6299C10.7875 91.2991 6.58713 89.3364 5.42934 88.4322L45.2518 23.7729H45.2248ZM48.8867 21.5676C51.4984 19.7592 77.4005 7.96087 82.8394 5.31451C85.505 4.01339 85.9627 3.19743 88.9245 4.67498C90.5669 5.49094 92.9363 6.63769 94.5788 7.14491C93.071 8.84299 63.4801 22.2733 60.3837 23.7288C57.2873 25.1843 57.6374 25.9561 54.4063 24.3242C52.6293 23.42 50.3406 22.6261 48.9136 21.5676H48.8867ZM1.229 90.0862C3.16762 91.1006 5.45627 92.1151 7.79876 93.2618C14.0454 96.3493 11.0029 96.0405 28.7735 87.6824L56.345 74.583C57.7451 75.7297 79.366 118.932 83.2433 126.562C85.5858 131.171 86.232 130.443 90.8362 132.759C102.683 138.757 97.8906 139 111.515 132.494C116.388 130.156 143.421 117.785 143.906 116.638C143.933 114.719 130.982 82.8087 129.797 81.3753C126.081 80.9342 123.631 81.5076 119.538 80.6475C100.448 76.6559 91.8324 56.698 108.661 43.7088C113.83 39.7172 114.557 42.4297 111.596 34.9537L100.314 6.94643C99.6407 5.932 87.8206 -0.000257652 85.4781 0.57312C84.3203 0.859809 79.5814 3.32974 78.1275 4.01339C68.5152 8.53425 59.0106 12.989 49.3444 17.6421C41.213 21.5455 43.8516 19.5166 38.8974 27.4998L8.39112 76.9426C6.74868 79.589 1.0136 87.3737 1.25593 90.0421L1.229 90.0862Z" fill="#000020"/>
<path fill-rule="evenodd" clip-rule="evenodd" d="M5.42927 88.4328C6.58705 89.359 10.7874 91.3217 12.4837 91.6305C13.4261 89.756 39.2743 61.7707 43.5554 56.9191C45.0363 55.2431 47.8904 51.9351 49.1289 52.7952C51.1214 54.8461 68.0304 88.8739 70.6422 94.0563L86.6088 125.327C88.0897 128.371 87.7397 127.709 90.9438 129.297C92.6401 130.157 94.9826 131.546 96.7597 132.076C96.1404 129.341 65.4456 53.5891 62.8339 47.1055C60.976 42.4523 59.0105 37.6668 57.0988 32.9695C56.668 31.8669 56.2372 30.676 55.7794 29.5513C55.0255 27.743 54.9448 27.9856 52.8715 27.0593C50.6098 26.0449 47.5673 24.3909 45.2248 23.7734L5.40234 88.4328H5.42927Z" fill="white"/>
<path fill-rule="evenodd" clip-rule="evenodd" d="M122.716 49.3983C128.693 48.0531 137.848 51.4933 136.232 55.7716C132.57 65.5852 118.812 68.3639 116.092 66.9525C112.511 65.1 108.365 52.618 122.716 49.3762V49.3983ZM123.281 46.1786C100.933 48.9793 106.668 76.744 128.585 73.6125C136.851 72.4216 143.987 65.9822 142.398 57.7784C141.106 51.0523 133.163 44.9436 123.281 46.1786Z" fill="#000020"/>
<path fill-rule="evenodd" clip-rule="evenodd" d="M122.716 49.3987C108.365 52.6405 112.511 65.1005 116.092 66.975C118.812 68.3864 132.597 65.5856 136.232 55.7941C137.821 51.4938 128.666 48.0756 122.716 49.4208V49.3987ZM48.9136 21.5899C50.3138 22.6485 52.6024 23.4424 54.4064 24.3465C57.6643 25.9785 57.2874 25.2066 60.3838 23.7511C63.5071 22.2956 93.071 8.88739 94.5788 7.16726C92.9364 6.66004 90.567 5.49123 88.9245 4.69732C85.9628 3.21977 85.505 4.03573 82.8394 5.33686C77.4005 7.98322 51.4985 19.7816 48.8867 21.5899H48.9136Z" fill="white"/>
</svg>
