<svg width="81" height="133" viewBox="0 0 81 133" fill="none" xmlns="http://www.w3.org/2000/svg">
<path d="M20.25 133C31.428 133 40.5 123.07 40.5 110.834V88.667H20.25C9.072 88.667 0 98.5976 0 110.834C0 123.07 9.072 133 20.25 133Z" fill="#0ACF83"/>
<path d="M0 66.4996C0 54.2637 9.072 44.333 20.25 44.333H40.5V88.6663H20.25C9.072 88.6663 0 78.7356 0 66.4996Z" fill="#A259FF"/>
<path d="M0 22.1667C0 9.93066 9.072 0 20.25 0H40.5V44.3333H20.25C9.072 44.3333 0 34.4026 0 22.1667Z" fill="#F24E1E"/>
<path d="M40.5 0H60.75C71.928 0 81.0001 9.93066 81.0001 22.1667C81.0001 34.4026 71.928 44.3333 60.75 44.3333H40.5V0Z" fill="#FF7262"/>
<path d="M81.0001 66.4996C81.0001 78.7356 71.928 88.6663 60.75 88.6663C49.572 88.6663 40.5 78.7356 40.5 66.4996C40.5 54.2637 49.572 44.333 60.75 44.333C71.928 44.333 81.0001 54.2637 81.0001 66.4996Z" fill="#1ABCFE"/>
</svg>
