<svg width="95" height="95" viewBox="0 0 95 95" fill="none" xmlns="http://www.w3.org/2000/svg">
<path d="M93.2085 43.268L51.7306 1.79158C49.3433 -0.597194 45.4691 -0.597194 43.0789 1.79158L34.4658 10.4048L45.3919 21.3311C47.9309 20.4732 50.8425 21.0487 52.8665 23.0727C54.9001 25.1097 55.4716 28.0462 54.5928 30.5934L65.1226 41.1238C67.6702 40.2461 70.6096 40.8139 72.6443 42.852C75.488 45.6946 75.488 50.3019 72.6443 53.1463C69.7999 55.9912 65.1928 55.9912 62.3468 53.1463C60.2078 51.0051 59.6794 47.8637 60.7623 45.2285L50.9424 35.4085L50.9412 61.2508C51.6531 61.6028 52.3033 62.0677 52.8665 62.6276C55.7102 65.4702 55.7102 70.0778 52.8665 72.9245C50.0221 75.7679 45.4127 75.7679 42.5723 72.9245C39.7286 70.0778 39.7286 65.4706 42.5723 62.628C43.2538 61.9461 44.0637 61.4062 44.9551 61.0393V34.9561C44.0624 34.5917 43.252 34.0514 42.5723 33.3674C40.4178 31.2158 39.8997 28.0544 41.0037 25.4088L30.2331 14.6369L1.79239 43.0762C-0.597462 45.4672 -0.597462 49.3418 1.79239 51.731L43.2711 93.2081C45.6591 95.5973 49.5326 95.5973 51.9235 93.2081L93.2082 51.9236C95.5973 49.5337 95.5976 45.6568 93.2085 43.268Z" fill="#DE4C36"/>
</svg>
