<svg width="93" height="94" viewBox="0 0 93 94" fill="none" xmlns="http://www.w3.org/2000/svg">
<path d="M46.5002 0C20.8221 0 0 21.5749 0 48.1898C0 69.4816 13.3237 87.5451 31.7998 93.9172C34.1236 94.3632 34.977 92.8718 34.977 91.5989C34.977 90.45 34.9336 86.6535 34.9139 82.6269C21.9771 85.542 19.2474 76.9411 19.2474 76.9411C17.1322 71.371 14.0844 69.8902 14.0844 69.8902C9.86568 66.8991 14.4025 66.9604 14.4025 66.9604C19.072 67.3005 21.5307 71.9265 21.5307 71.9265C25.678 79.2938 32.4088 77.1637 35.0623 75.9328C35.4795 72.8177 36.6848 70.6922 38.0145 69.4888C27.6864 68.2699 16.8288 64.1379 16.8288 45.673C16.8288 40.4121 18.6453 36.1129 21.6201 32.7383C21.1372 31.5243 19.5457 26.6231 22.0705 19.9853C22.0705 19.9853 25.9753 18.6901 34.8614 24.925C38.5703 23.857 42.5484 23.3218 46.5002 23.3037C50.452 23.3218 54.433 23.857 58.1492 24.925C67.0247 18.6901 70.924 19.9853 70.924 19.9853C73.455 26.6231 71.8628 31.5243 71.3799 32.7383C74.3613 36.1129 76.1654 40.4117 76.1654 45.673C76.1654 64.1817 65.2873 68.2575 54.933 69.4503C56.6007 70.9458 58.0868 73.8786 58.0868 78.3743C58.0868 84.822 58.0329 90.0116 58.0329 91.5989C58.0329 92.8813 58.8698 94.384 61.2272 93.9108C79.6931 87.5315 93 69.4744 93 48.1898C93 21.5749 72.1808 0 46.5002 0Z" fill="#161614"/>
<path d="M17.4154 68.6473C17.3133 68.8865 16.9493 68.9583 16.6185 68.7943C16.2812 68.637 16.0915 68.3105 16.2009 68.0701C16.3012 67.8237 16.6652 67.7549 17.0018 67.9205C17.3399 68.0773 17.5324 68.4069 17.4154 68.6473V68.6473ZM19.7027 70.7622C19.481 70.9754 19.0474 70.8764 18.7531 70.5396C18.4489 70.2036 18.392 69.7546 18.617 69.5381C18.8457 69.3253 19.2662 69.4247 19.5711 69.761C19.8752 70.1008 19.9343 70.5472 19.7024 70.7626L19.7027 70.7622ZM21.272 73.4683C20.9868 73.6735 20.5207 73.4812 20.233 73.0526C19.9482 72.6244 19.9482 72.1104 20.2392 71.9044C20.528 71.6984 20.9868 71.8836 21.2786 72.3088C21.563 72.7445 21.563 73.2585 21.2716 73.4687L21.272 73.4683ZM23.9255 76.6026C23.6706 76.8936 23.1279 76.8158 22.7304 76.4182C22.3241 76.0296 22.2107 75.4782 22.4664 75.1868C22.7242 74.895 23.2702 74.9771 23.6706 75.3713C24.0743 75.759 24.1976 76.3146 23.9259 76.6026H23.9255ZM27.3551 77.6608C27.2431 78.038 26.7202 78.2096 26.1935 78.0494C25.6677 77.8842 25.3234 77.442 25.4295 77.0607C25.5389 76.6808 26.0641 76.5021 26.5947 76.6737C27.1199 76.8381 27.4649 77.2769 27.3555 77.6608H27.3551ZM31.2588 78.1095C31.2719 78.5071 30.8252 78.8366 30.2723 78.8438C29.7161 78.8563 29.2665 78.5346 29.2606 78.1439C29.2606 77.7425 29.6972 77.4159 30.253 77.4065C30.8058 77.3951 31.2588 77.7145 31.2588 78.1095V78.1095ZM35.0932 77.9571C35.1595 78.3449 34.7752 78.7433 34.2263 78.8491C33.6865 78.9511 33.1869 78.7119 33.118 78.3275C33.0509 77.9299 33.4426 77.532 33.9812 77.4288C34.5312 77.3298 35.0231 77.563 35.0932 77.9571" fill="#161614"/>
</svg>
