<svg width="96" height="95" viewBox="0 0 96 95" fill="none" xmlns="http://www.w3.org/2000/svg">
<path d="M96 0H0V95H96V0Z" fill="#F7DF1E"/>
<path d="M64.487 74.2201C66.4208 77.3445 68.9366 79.6411 73.3861 79.6411C77.124 79.6411 79.5118 77.7924 79.5118 75.2379C79.5118 72.1768 77.0585 71.0926 72.9442 69.3117L70.6889 68.3542C64.1792 65.6097 59.8547 62.1716 59.8547 54.9034C59.8547 48.2082 65.0097 43.1113 73.0661 43.1113C78.8017 43.1113 82.9251 45.0867 85.8966 50.2589L78.8718 54.7224C77.3251 51.978 75.6566 50.8968 73.0661 50.8968C70.4238 50.8968 68.7491 52.5555 68.7491 54.7224C68.7491 57.4005 70.4253 58.4847 74.2958 60.1435L76.551 61.0995C84.2158 64.3521 88.5434 67.6681 88.5434 75.1233C88.5434 83.1606 82.1632 87.5638 73.5948 87.5638C65.2169 87.5638 59.8044 83.613 57.156 78.4347L64.487 74.2201ZM32.6196 74.9936C34.0367 77.4817 35.3259 79.5853 38.4253 79.5853C41.3891 79.5853 43.2588 78.4378 43.2588 73.9758V43.621H52.2798V74.0964C52.2798 83.3401 46.8032 87.5472 38.8093 87.5472C31.5865 87.5472 27.4036 83.8482 25.2764 79.393L32.6196 74.9936Z" fill="black"/>
</svg>
