<svg width="122" height="138" viewBox="0 0 122 138" fill="none" xmlns="http://www.w3.org/2000/svg">
<path d="M39.2922 106.726C39.2922 106.726 32.9711 109.793 43.791 110.83C56.8993 112.078 63.5983 111.899 78.0439 109.618C78.0439 109.618 81.8419 111.605 87.1453 113.326C54.7632 124.904 13.8572 112.655 39.2922 106.726V106.726ZM35.3352 91.6172C35.3352 91.6172 28.2453 95.9956 39.0733 96.9297C53.0759 98.1348 64.1338 98.2335 83.2687 95.1597C83.2687 95.1597 85.9154 97.398 90.077 98.6223C50.9244 108.173 7.31576 99.3754 35.3352 91.6172" fill="#5382A1"/>
<path d="M68.693 65.9854C76.6723 73.649 66.5967 80.5455 66.5967 80.5455C66.5967 80.5455 86.8566 71.8202 77.5521 60.8938C68.8621 50.705 62.1976 45.6418 98.2751 28.1865C98.2751 28.1865 41.6455 39.9856 68.693 65.9851" fill="#E76F00"/>
<path d="M111.521 117.9C111.521 117.9 116.199 121.115 106.369 123.603C87.678 128.327 28.5731 129.753 12.1539 123.791C6.25179 121.65 17.3203 118.677 20.8017 118.053C24.4326 117.396 26.5079 117.518 26.5079 117.518C19.9439 113.661 -15.9187 125.093 8.29163 128.367C74.3159 137.299 128.647 124.345 111.521 117.9ZM42.3309 75.9612C42.3309 75.9612 12.2669 81.9186 31.6848 84.0815C39.8834 84.9973 56.2275 84.7903 71.4518 83.7259C83.8939 82.8508 96.3872 80.9889 96.3872 80.9889C96.3872 80.9889 92.0001 82.5563 88.8261 84.3644C58.2961 91.063 -0.682402 87.9468 16.2967 81.0947C30.6561 75.3043 42.3313 75.9612 42.3313 75.9612H42.3309ZM96.2632 101.11C127.299 87.6564 112.949 74.7273 102.933 76.4694C100.478 76.8953 99.384 77.2645 99.384 77.2645C99.384 77.2645 100.295 76.0738 102.036 75.5584C121.85 69.7468 137.089 92.6984 95.6396 101.788C95.6396 101.789 96.12 101.431 96.2632 101.11" fill="#5382A1"/>
<path d="M77.5526 0.000399556C77.5526 0.000399556 94.7406 14.3446 61.2507 36.4008C34.3956 54.0942 55.1269 64.1823 61.2397 75.7085C45.5637 63.9094 34.0594 53.5224 41.7776 43.8554C53.1052 29.6642 84.4873 22.7842 77.5526 0" fill="#E76F00"/>
<path d="M45.3816 137.566C75.1717 139.157 120.917 136.683 122.001 124.924C122.001 124.924 119.918 129.382 97.381 132.922C71.9546 136.914 40.595 136.448 21.9951 133.89C21.9956 133.89 25.8027 136.519 45.3821 137.566" fill="#5382A1"/>
</svg>
