<svg width="125" height="109" viewBox="0 0 125 109" fill="none" xmlns="http://www.w3.org/2000/svg">
<path d="M5.20898 4.65625H119.792V104.34H5.20898V4.65625Z" fill="url(#paint0_radial_44_10077)"/>
<path d="M5.20826 4.65805H119.792V104.342H5.20826V4.65805ZM0 109H125V0H0V109ZM73.1771 45.8824C73.1771 45.3233 73.1771 43.9727 72.9167 41.3639C72.9167 40.9913 73.0209 40.8982 73.3333 40.7584C76.5104 39.5939 84.0625 37.5444 92.5 37.5444C92.9166 37.5444 93.1251 37.6375 93.1251 38.0101V44.7179C93.1251 45.0905 92.9689 45.1836 92.5 45.1836C89.2187 45.0439 84.375 45.4165 82.5521 46.1151V75.508C82.5521 75.8806 82.3959 76.0669 81.927 76.0669H73.75C73.3333 76.0669 73.1248 75.9271 73.1248 75.508V45.8822H73.1771V45.8824V45.8824ZM34.6356 76.0669C34.0105 76.0669 33.8542 75.8342 33.8542 75.3683V25.2935C33.8542 24.9209 34.0105 24.6879 34.4794 24.6879H42.7083C43.1249 24.6879 43.229 24.8276 43.229 25.2469V68.3811H64.6872C65.1038 68.3811 65.2603 68.5208 65.1559 68.9402L63.854 75.5547C63.7498 75.9272 63.4894 76.1136 63.0726 76.1136H34.6356V76.0669V76.0669Z" fill="#AAD1EB"/>
<defs>
<radialGradient id="paint0_radial_44_10077" cx="0" cy="0" r="1" gradientUnits="userSpaceOnUse" gradientTransform="translate(42.9472 26.9955) scale(87.0833 75.4057)">
<stop stop-color="#39464D" stop-opacity="0.98"/>
<stop offset="1" stop-color="#05151F"/>
</radialGradient>
</defs>
</svg>
