<svg width="60" height="144" viewBox="0 0 60 144" fill="none" xmlns="http://www.w3.org/2000/svg">
<path d="M29.5817 0.393555L33.1464 7.61096C33.9478 8.94285 34.816 10.1217 35.8387 11.2197C38.8369 14.4114 41.6316 17.8178 44.2036 21.4158C50.2435 29.9651 54.3174 39.4593 57.2268 49.7275C58.9716 55.9999 59.9191 62.4344 59.99 68.9409C60.2822 88.3928 54.0962 105.095 41.624 118.977C39.5953 121.178 37.4036 123.198 35.0707 125.015C33.8351 125.015 33.2508 123.994 32.7415 123.053C31.8141 121.31 31.1969 119.394 30.9216 117.406C30.4833 115.053 30.1953 112.7 30.3372 110.27V109.172C30.237 108.938 29.1476 0.947009 29.5817 0.393555V0.393555Z" fill="#599636"/>
<path d="M29.5821 0.154801C29.436 -0.160173 29.2899 0.0783071 29.1439 0.231295C29.2148 1.80616 28.7056 3.21005 27.9083 4.55094C27.0318 5.88283 25.8714 6.90425 24.7068 8.00216C18.2369 14.0407 13.1445 21.3346 9.06645 29.4924C3.64013 40.4715 0.843487 52.238 0.0504094 64.6255C-0.312737 69.0936 1.36107 84.8603 2.66757 89.4095C6.23224 101.486 12.6353 111.606 20.9292 120.389C22.9662 122.504 25.1451 124.466 27.3991 126.351C28.0544 126.351 28.1254 125.721 28.2756 125.254C28.563 124.252 28.782 123.23 28.931 122.194L30.3919 110.432L29.5821 0.154801Z" fill="#6CAC48"/>
<path d="M33.1471 129.795C33.2932 127.995 34.0947 126.501 34.9671 125.011C34.0905 124.62 33.4393 123.842 32.9301 122.973C32.491 122.151 32.1275 121.284 31.8448 120.386C30.8263 117.092 30.6093 113.636 30.3171 110.271V108.232C29.954 108.547 29.8788 111.211 29.8788 111.607C29.6664 115.164 29.2285 118.702 28.5682 122.195C28.3511 123.608 28.205 125.016 27.3994 126.271C27.3994 126.429 27.3994 126.586 27.4704 126.82C28.781 130.978 29.14 135.212 29.3612 139.527V141.102C29.3612 142.983 29.2903 142.587 30.7387 143.217C31.3231 143.451 31.9742 143.532 32.5586 144C32.9969 144 33.0678 143.608 33.0678 143.293L32.8508 140.706V133.489C32.7798 132.229 32.9969 130.978 33.143 129.799L33.1471 129.795Z" fill="#C2BFBF"/>
</svg>
