<svg width="159" height="80" viewBox="0 0 159 80" fill="none" xmlns="http://www.w3.org/2000/svg">
<path d="M37.5171 20.8647H67.5061V22.8526H40.2661V37.8138H65.8817V39.8016H40.2661V56.2276H67.8185V58.2154H37.5171V20.8647ZM70.1926 20.8647H73.379L87.4988 37.2907L101.931 20.8647L121.561 0L89.3106 39.017L105.93 58.2154H102.618L87.4988 40.7432L72.3168 58.2154H69.068L85.8119 39.017L70.1926 20.8647ZM107.117 22.8526V20.8647H141.292V22.8526H125.547V58.2154H122.798V22.8526H107.117Z" fill="black"/>
<path d="M0 20.8662H3.43624L50.82 79.9999L31.2386 58.2169L2.87395 23.6911L2.74899 58.2169H0V20.8662Z" fill="black"/>
<path d="M141.014 55.6255C141.582 55.6255 141.997 55.2626 141.997 54.7936C141.997 54.3246 141.582 53.9617 141.014 53.9617C140.452 53.9617 140.031 54.3246 140.031 54.7936C140.031 55.2626 140.452 55.6255 141.014 55.6255ZM143.715 53.4368C143.715 54.8215 144.912 55.726 146.657 55.726C148.516 55.726 149.639 54.7936 149.639 53.1744V47.4737H148.142V53.1688C148.142 54.0678 147.6 54.5479 146.644 54.5479C145.788 54.5479 145.206 54.1013 145.186 53.4368H143.715ZM151.598 53.3643C151.705 54.8048 153.143 55.726 155.282 55.726C157.569 55.726 159 54.7601 159 53.2191C159 52.0075 158.184 51.3375 156.205 50.9522L155.142 50.7345C153.885 50.4888 153.377 50.1594 153.377 49.5843C153.377 48.8584 154.166 48.3838 155.349 48.3838C156.473 48.3838 157.248 48.8473 157.389 49.5899H158.846C158.759 48.2331 157.328 47.2783 155.369 47.2783C153.263 47.2783 151.859 48.2331 151.859 49.668C151.859 50.8517 152.655 51.5552 154.4 51.8958L155.643 52.1471C156.921 52.3983 157.482 52.7668 157.482 53.381C157.482 54.0957 156.6 54.6149 155.396 54.6149C154.106 54.6149 153.21 54.1292 153.083 53.3643H151.598Z" fill="black"/>
</svg>
