<svg width="108" height="113" viewBox="0 0 108 113" fill="none" xmlns="http://www.w3.org/2000/svg">
<path d="M49.1272 1.20555C52.0782 -0.398226 55.9219 -0.40547 58.8703 1.20555C73.7037 9.16367 88.5418 17.1093 103.373 25.0722C106.162 26.5641 108.028 29.5117 108 32.5635V80.4426C108.02 83.6208 105.97 86.6388 103.027 88.0969C88.2426 96.0111 73.4655 103.935 58.6834 111.849C55.6714 113.484 51.7505 113.358 48.8326 111.589C44.4002 109.15 39.9601 106.722 35.5272 104.285C34.6214 103.772 33.6003 103.364 32.9607 102.53C33.5261 101.806 34.5371 101.716 35.3585 101.4C37.2087 100.842 38.908 99.9451 40.6078 99.075C41.0376 98.7957 41.5623 98.9027 41.9743 99.1527C45.7646 101.216 49.5214 103.339 53.3244 105.383C54.1357 105.828 54.9571 105.237 55.6506 104.87C70.1589 97.0849 84.685 89.3288 99.1908 81.5409C99.7282 81.2954 100.025 80.7537 99.9817 80.1947C99.9919 64.4004 99.9843 48.6033 99.9868 32.809C100.048 32.1748 99.6617 31.5916 99.0577 31.332C84.3243 23.454 69.5985 15.5639 54.8677 7.68384C54.6125 7.51725 54.3101 7.42786 54.0004 7.42743C53.6907 7.427 53.3881 7.51555 53.1324 7.68143C38.4015 15.5639 23.6783 23.4612 8.94746 31.3389C8.34557 31.5988 7.94162 32.1723 8.01325 32.809C8.01579 48.6033 8.01325 64.4004 8.01325 80.1971C7.98771 80.4699 8.0508 80.7435 8.19403 80.9812C8.33727 81.2188 8.55376 81.4091 8.81437 81.5264C12.7454 83.6429 16.6814 85.7445 20.615 87.8538C22.831 88.9863 25.5518 89.6592 27.9933 88.7915C30.1479 88.0578 31.6581 85.9703 31.617 83.7983C31.6374 68.0961 31.6068 52.3916 31.6323 36.6919C31.5784 35.9948 32.2749 35.4189 32.9887 35.4845C34.8774 35.4725 36.7688 35.4604 38.6575 35.4894C39.4459 35.4725 39.9885 36.223 39.891 36.9253C39.8834 52.7268 39.9113 68.5288 39.8783 84.3303C39.8834 88.5416 38.0611 93.1239 33.9585 95.1845C28.9042 97.6704 22.6572 97.1432 17.664 94.7595C13.3413 92.711 9.2162 90.2935 4.97027 88.0989C2.01969 86.6488 -0.0204049 83.6188 0.000364827 80.443V32.5635C-0.0305779 29.4485 1.90949 26.4474 4.78589 24.9773C19.568 17.0566 34.3476 9.12986 49.1272 1.20555Z" fill="#8CC84B"/>
<path d="M62.0231 34.3709C68.4702 33.9769 75.3721 34.1375 81.1736 37.1531C85.6654 39.464 88.1557 44.3139 88.2349 49.052C88.1095 49.6911 87.4058 50.0437 86.7632 49.9998C84.8927 49.9974 83.0217 50.0239 81.1512 49.9877C80.3577 50.0167 79.8965 49.3221 79.7969 48.656C79.2594 46.389 77.9573 44.1437 75.7099 43.0502C72.26 41.4102 68.2599 41.4927 64.4981 41.5269C61.7518 41.6654 58.7987 41.8912 56.472 43.4245C54.6858 44.586 54.1433 46.9307 54.7808 48.819C55.3818 50.1749 57.0303 50.6123 58.379 51.0156C66.1486 52.9449 74.3819 52.753 82.0032 55.292C85.1585 56.3272 88.2451 58.3394 89.3251 61.4761C90.7379 65.6802 90.1186 70.7052 86.9684 74.0802C84.4137 76.8575 80.693 78.3691 76.982 79.1901C72.0451 80.2353 66.9218 80.2619 61.9082 79.7978C57.1939 79.2875 52.288 78.1116 48.6486 75.0618C45.5366 72.4961 44.0166 68.4986 44.1675 64.6402C44.2035 63.9887 44.8868 63.5343 45.5442 63.5878C47.4279 63.5733 49.3116 63.5685 51.1953 63.5902C51.9476 63.5391 52.5054 64.1565 52.544 64.8298C52.8916 66.9898 53.7465 69.2568 55.7303 70.5374C59.5587 72.8825 64.3624 72.7219 68.7461 72.7875C72.3779 72.6346 76.4547 72.5883 79.4184 70.3092C80.982 69.0093 81.4453 66.8344 81.0227 64.9634C80.565 63.3838 78.8245 62.6477 77.33 62.1664C69.66 59.8627 61.3347 60.6986 53.7389 58.0935C50.6552 57.0588 47.6733 55.1025 46.4886 52.0946C44.8355 47.8374 45.5929 42.5717 49.0734 39.3106C52.4669 36.0668 57.3656 34.8176 62.0231 34.3705V34.3709Z" fill="#8CC84B"/>
</svg>
