<svg width="167" height="93" viewBox="0 0 167 93" fill="none" xmlns="http://www.w3.org/2000/svg">
<path fill-rule="evenodd" clip-rule="evenodd" d="M83.5 93C129.616 93 167 72.1805 167 46.5C167 20.8195 129.616 0 83.5 0C37.3851 0 0 20.8195 0 46.5C0 72.1805 37.3851 93 83.5 93Z" fill="#6E81B6"/>
<path fill-rule="evenodd" clip-rule="evenodd" d="M100.423 61.5264L104.565 38.1016C105.5 32.8146 104.722 28.8713 102.256 26.3793C99.8658 23.9682 95.8089 22.7954 89.8537 22.7954H82.6808L84.7325 11.1896C84.7709 10.9736 84.7654 10.7509 84.7162 10.5375C84.6671 10.3242 84.5756 10.1254 84.4483 9.95548C84.321 9.78556 84.161 9.64872 83.9799 9.55478C83.7988 9.46083 83.601 9.41211 83.4007 9.41211H73.5006C72.8503 9.41211 72.292 9.91917 72.1678 10.6204L67.7685 35.4886C67.3687 32.6904 66.3832 30.2849 64.8061 28.2999C61.9022 24.6473 57.3091 22.7954 51.1529 22.7954H31.9646C31.3144 22.7954 30.756 23.3025 30.6318 24.0026L21.7293 74.3405C21.6516 74.7788 21.7556 75.2292 22.0141 75.5732C22.2715 75.9183 22.6552 76.1169 23.0621 76.1169H33.04C33.6902 76.1169 34.2486 75.6098 34.3728 74.9075L36.5264 62.7324H43.9538C47.8512 62.7324 51.1267 62.2686 53.6832 61.3544C56.2973 60.4201 58.7035 58.8357 60.8238 56.6543C62.5373 54.9245 63.9529 52.9873 65.0423 50.898L63.2643 60.9549C63.1865 61.3932 63.2905 61.8459 63.549 62.1876C63.8065 62.5327 64.1912 62.7313 64.5971 62.7313H74.4972C75.1474 62.7313 75.7058 62.2242 75.83 61.5241L80.7159 33.8931H87.5091C90.4039 33.8931 91.2521 34.5267 91.4833 34.7985C91.6923 35.047 92.1265 35.9225 91.6388 38.6819L87.701 60.9538C87.6632 61.1698 87.6693 61.3922 87.7188 61.6053C87.7683 61.8183 87.86 62.0167 87.9873 62.1864C88.1146 62.3561 88.2743 62.4928 88.4552 62.5868C88.6361 62.6808 88.8337 62.7297 89.0338 62.7302H99.0914C99.4061 62.7309 99.7112 62.6111 99.9542 62.3914C100.197 62.1717 100.363 61.8658 100.423 61.5264V61.5264ZM54.5243 42.1714C53.9023 45.6832 52.7311 48.1874 51.0409 49.6154C49.3244 51.07 46.579 51.8067 42.8805 51.8067H38.458L41.6557 33.7234H47.3736C51.574 33.7234 53.2662 34.7097 53.9458 35.5364C54.8878 36.6836 55.0877 38.9793 54.5243 42.1714V42.1714ZM142.125 28.2999C139.222 24.6473 134.629 22.7954 128.473 22.7954H109.284C108.633 22.7954 108.076 23.3025 107.951 24.0026L99.05 74.3405C98.9712 74.7788 99.0752 75.2292 99.3337 75.5732C99.5922 75.9172 99.9769 76.1169 100.381 76.1169H110.36C111.011 76.1169 111.568 75.6098 111.692 74.9075L113.846 62.7324H121.274C125.173 62.7324 128.445 62.2686 131.003 61.3544C133.618 60.4201 136.024 58.8357 138.143 56.6543C139.912 54.8691 141.367 52.8619 142.47 50.695C143.573 48.528 144.363 46.1114 144.825 43.5107C145.959 37.0964 145.051 31.9791 142.125 28.2999V28.2999ZM132.41 42.1714C131.787 45.6832 130.616 48.1874 128.928 49.6154C127.21 51.07 124.465 51.8067 120.768 51.8067H116.344L119.541 33.7234H125.26C129.46 33.7234 131.152 34.7097 131.833 35.5364C132.773 36.6836 132.974 38.9793 132.41 42.1714V42.1714Z" fill="white"/>
<path fill-rule="evenodd" clip-rule="evenodd" d="M47.088 32.2367C50.8784 32.2367 53.4057 33.0056 54.6688 34.5434C55.9309 36.0812 56.2318 38.722 55.5715 42.4622C54.8808 46.3578 53.5521 49.1384 51.5832 50.8049C49.6142 52.4714 46.6174 53.3036 42.5948 53.3036H36.5245L40.2503 32.2367H47.088ZM22.7754 74.6301H32.7533L35.121 61.2479H43.6681C47.4393 61.2479 50.5422 60.8119 52.9776 59.9409C55.413 59.0699 57.6272 57.6108 59.6194 55.5615C61.2914 53.8739 62.6444 52.0098 63.6804 49.9727C64.7153 47.9356 65.4504 45.6888 65.8856 43.2311C66.9417 37.264 66.1451 32.6161 63.4976 29.2875C60.8512 25.9578 56.6397 24.2935 50.8673 24.2935H31.6789L22.7754 74.6301V74.6301ZM73.214 10.9102H83.1141L80.7474 24.2935H89.5681C95.1154 24.2935 98.9452 25.3564 101.051 27.4834C103.158 29.6104 103.789 33.0577 102.947 37.8232L98.8048 61.2479H88.7472L92.685 38.9749C93.1323 36.4407 92.9688 34.7132 92.1903 33.7911C91.4118 32.8702 89.7549 32.4087 87.2226 32.4087H79.3105L74.2106 61.2479H64.3104L73.214 10.9102ZM124.974 32.2367C128.765 32.2367 131.291 33.0056 132.555 34.5434C133.817 36.0812 134.117 38.722 133.457 42.4622C132.768 46.3578 131.439 49.1384 129.469 50.8049C127.502 52.4714 124.504 53.3036 120.483 53.3036H114.413L118.138 32.2367H124.974V32.2367ZM100.66 74.6301H110.639L113.005 61.2479H121.552C125.325 61.2479 128.427 60.8119 130.863 59.9409C133.298 59.0699 135.513 57.6108 137.505 55.5615C139.177 53.8739 140.53 52.0098 141.565 49.9727C142.6 47.9356 143.336 45.6888 143.772 43.2311C144.827 37.264 144.03 32.6161 141.384 29.2875C138.735 25.9578 134.525 24.2935 128.753 24.2935H109.564L100.66 74.6301V74.6301Z" fill="black"/>
</svg>
