<svg width="110" height="110" viewBox="0 0 110 110" fill="none" xmlns="http://www.w3.org/2000/svg">
<path d="M54.6037 0C26.6788 0 28.4224 12.1732 28.4224 12.1732L28.4534 24.785H55.1016V28.5714H17.8691C17.8691 28.5714 0 26.5342 0 54.8575C0 83.1816 15.5966 82.1771 15.5966 82.1771H24.9046V69.0336C24.9046 69.0336 24.4028 53.3555 40.2523 53.3555H66.6826C66.6826 53.3555 81.5319 53.5966 81.5319 38.9291V14.6771C81.5319 14.6771 83.7872 0 54.6037 0ZM39.9099 8.48117C40.5396 8.4806 41.1632 8.60486 41.7451 8.84684C42.327 9.08882 42.8557 9.44377 43.301 9.89137C43.7463 10.339 44.0994 10.8704 44.3401 11.4554C44.5808 12.0403 44.7044 12.6672 44.7039 13.3002C44.7044 13.9332 44.5808 14.5601 44.3401 15.1451C44.0994 15.73 43.7463 16.2615 43.301 16.7091C42.8557 17.1567 42.327 17.5116 41.7451 17.7536C41.1632 17.9956 40.5396 18.1198 39.9099 18.1193C39.2802 18.1198 38.6565 17.9956 38.0746 17.7536C37.4927 17.5116 36.964 17.1567 36.5187 16.7091C36.0735 16.2615 35.7204 15.73 35.4797 15.1451C35.2389 14.5601 35.1153 13.9332 35.1159 13.3002C35.1153 12.6672 35.2389 12.0403 35.4797 11.4554C35.7204 10.8704 36.0735 10.339 36.5187 9.89137C36.964 9.44377 37.4927 9.08882 38.0746 8.84684C38.6565 8.60486 39.2802 8.4806 39.9099 8.48117V8.48117Z" fill="url(#paint0_linear_44_10038)"/>
<path d="M55.3963 110.001C83.3212 110.001 81.5776 97.8278 81.5776 97.8278L81.5466 85.2164H54.8979V81.43H92.1304C92.1304 81.43 110 83.4672 110 55.143C110 26.8192 94.4029 27.8237 94.4029 27.8237H85.0949V40.9668C85.0949 40.9668 85.5967 56.645 69.7472 56.645H43.317C43.317 56.645 28.4676 56.4038 28.4676 71.0718V95.3243C28.4676 95.3243 26.2128 110.001 55.3958 110.001H55.3963ZM70.0901 101.521C69.4604 101.521 68.8367 101.397 68.2548 101.155C67.673 100.913 67.1442 100.558 66.699 100.11C66.2537 99.6628 65.9006 99.1314 65.6599 98.5464C65.4191 97.9615 65.2955 97.3346 65.2961 96.7016C65.2955 96.0685 65.419 95.4416 65.6597 94.8566C65.9004 94.2716 66.2535 93.7401 66.6988 93.2924C67.1441 92.8448 67.6728 92.4898 68.2547 92.2478C68.8367 92.0058 69.4603 91.8815 70.0901 91.8821C70.7198 91.8815 71.3435 92.0058 71.9253 92.2478C72.5072 92.4897 73.0359 92.8447 73.4812 93.2923C73.9265 93.7399 74.2796 94.2714 74.5203 94.8563C74.761 95.4412 74.8847 96.0681 74.8841 96.7011C74.8847 97.3342 74.761 97.9611 74.5203 98.546C74.2796 99.1309 73.9265 99.6624 73.4812 100.11C73.0359 100.558 72.5072 100.913 71.9253 101.155C71.3435 101.397 70.7198 101.521 70.0901 101.52V101.521Z" fill="url(#paint1_linear_44_10038)"/>
<defs>
<linearGradient id="paint0_linear_44_10038" x1="10.571" y1="9.89383" x2="65.3649" y2="63.8591" gradientUnits="userSpaceOnUse">
<stop stop-color="#387EB8"/>
<stop offset="1" stop-color="#366994"/>
</linearGradient>
<linearGradient id="paint1_linear_44_10038" x1="44.0304" y1="44.7315" x2="102.859" y2="100.055" gradientUnits="userSpaceOnUse">
<stop stop-color="#FFE052"/>
<stop offset="1" stop-color="#FFC331"/>
</linearGradient>
</defs>
</svg>
