<svg width="135" height="150" viewBox="0 0 135 150" fill="none" xmlns="http://www.w3.org/2000/svg">
<path d="M67.5002 87.1591C74.0079 87.1591 79.2835 81.7153 79.2835 75C79.2835 68.2847 74.0079 62.8408 67.5002 62.8408C60.9924 62.8408 55.7168 68.2847 55.7168 75C55.7168 81.7153 60.9924 87.1591 67.5002 87.1591Z" fill="#61DAFB"/>
<path fill-rule="evenodd" clip-rule="evenodd" d="M12.0949 68.602C9.42271 71.0911 8.54439 73.2614 8.54439 74.9998C8.54439 76.7382 9.42271 78.9085 12.0949 81.3976C14.7652 83.8851 18.8704 86.3282 24.3077 88.4705C35.1523 92.7432 50.422 95.4782 67.5 95.4782C84.578 95.4782 99.8477 92.7432 110.692 88.4705C116.13 86.3282 120.235 83.8851 122.905 81.3976C125.577 78.9085 126.456 76.7382 126.456 74.9998C126.456 73.2614 125.577 71.0911 122.905 68.602C120.235 66.1145 116.13 63.6714 110.692 61.5291C99.8477 57.2564 84.578 54.5214 67.5 54.5214C50.422 54.5214 35.1523 57.2564 24.3077 61.5291C18.8704 63.6714 14.7652 66.1145 12.0949 68.602ZM21.2747 53.2404C33.314 48.4969 49.6583 45.6553 67.5 45.6553C85.3417 45.6553 101.686 48.4969 113.725 53.2404C119.73 55.6062 124.884 58.531 128.613 62.0043C132.34 65.4759 135 69.8591 135 74.9998C135 80.1405 132.34 84.5237 128.613 87.9953C124.884 91.4686 119.73 94.3934 113.725 96.7592C101.686 101.503 85.3417 104.344 67.5 104.344C49.6583 104.344 33.314 101.503 21.2747 96.7592C15.27 94.3934 10.1157 91.4686 6.38704 87.9953C2.66018 84.5237 0 80.1405 0 74.9998C0 69.8591 2.66018 65.4759 6.38704 62.0043C10.1157 58.531 15.27 55.6062 21.2747 53.2404Z" fill="#61DAFB"/>
<path fill-rule="evenodd" clip-rule="evenodd" d="M45.2011 22.298C41.7804 21.1561 39.5081 21.4506 38.0309 22.3306C36.5538 23.2106 35.1705 25.094 34.4185 28.7219C33.6665 32.3501 33.6687 37.2368 34.5888 43.1632C36.4242 54.9842 41.7612 69.9913 50.2976 85.2484C58.8341 100.506 68.7604 112.778 77.7636 120.329C82.2774 124.115 86.3775 126.56 89.7985 127.702C93.2193 128.844 95.4915 128.549 96.9687 127.669C98.4458 126.789 99.8291 124.906 100.581 121.278C101.333 117.65 101.331 112.763 100.411 106.837C98.5755 95.0158 93.2385 80.0087 84.702 64.7515C76.1656 49.4944 66.2392 37.2215 57.236 29.6709C52.7223 25.8854 48.6222 23.4401 45.2011 22.298ZM62.622 22.8065C72.6277 31.1979 83.1885 44.3882 92.112 60.337C101.035 76.2857 106.825 92.3185 108.865 105.456C109.882 112.008 110.005 118.08 108.954 123.151C107.903 128.222 105.555 132.777 101.259 135.337C96.9625 137.897 91.9655 137.717 87.1842 136.12C82.4031 134.524 77.3683 131.379 72.3776 127.194C62.3719 118.802 51.8111 105.612 42.8877 89.663C33.9643 73.7143 28.1745 57.6815 26.1348 44.5442C25.1174 37.9915 24.995 31.9196 26.046 26.8489C27.0971 21.7781 29.4447 17.2225 33.7409 14.663C38.0371 12.1035 43.0341 12.2834 47.8155 13.8795C52.5966 15.4755 57.6313 18.6209 62.622 22.8065Z" fill="#61DAFB"/>
<path fill-rule="evenodd" clip-rule="evenodd" d="M100.581 28.7221C99.8293 25.0942 98.446 23.2108 96.9689 22.3307C95.4917 21.4507 93.2195 21.1563 89.7987 22.2982C86.3777 23.4402 82.2776 25.8855 77.7638 29.671C68.7606 37.2217 58.8343 49.4946 50.2978 64.7517C41.7614 80.0088 36.4244 95.0159 34.589 106.837C33.6689 112.763 33.6667 117.65 34.4187 121.278C35.1707 124.906 36.554 126.79 38.0311 127.67C39.5083 128.55 41.7806 128.844 45.2013 127.702C48.6224 126.56 52.7225 124.115 57.2362 120.329C66.2394 112.779 76.1658 100.506 84.7022 85.2486C93.2387 69.9915 98.5757 54.9844 100.411 43.1634C101.331 37.237 101.333 32.3503 100.581 28.7221ZM108.865 44.5444C106.825 57.6816 101.036 73.7144 92.1122 89.6632C83.1887 105.612 72.6279 118.802 62.6222 127.194C57.6315 131.379 52.5968 134.525 47.8157 136.121C43.0343 137.717 38.0373 137.897 33.7411 135.337C29.4449 132.778 27.0973 128.222 26.0462 123.151C24.9952 118.081 25.1176 112.009 26.135 105.456C28.1747 92.3187 33.9645 76.2859 42.8879 60.3371C51.8113 44.3884 62.3721 31.198 72.3778 22.8066C77.3685 18.6211 82.4033 15.4757 87.1844 13.8796C91.9657 12.2835 96.9627 12.1036 101.259 14.6632C105.555 17.2227 107.903 21.7782 108.954 26.8491C110.005 31.9197 109.882 37.9917 108.865 44.5444Z" fill="#61DAFB"/>
</svg>
