<svg width="96" height="95" viewBox="0 0 96 95" fill="none" xmlns="http://www.w3.org/2000/svg">
<path d="M0 0H96V95H0V0Z" fill="#017ACB"/>
<path d="M46.0949 35.1795H50.6999V43.0467H38.2498V78.0482L37.9198 78.1373C37.4698 78.2561 31.5448 78.2561 30.2698 78.1225L29.2498 78.0334V43.0467H16.7998V35.1795L20.7448 35.135C22.9048 35.1053 28.4548 35.1053 33.0748 35.135C37.6948 35.1646 43.5448 35.1795 46.0949 35.1795V35.1795ZM81.2399 74.3373C79.4099 76.2521 77.4449 77.3209 74.1749 78.1967C72.7499 78.5826 72.5099 78.5975 69.2999 78.5826C66.0899 78.5678 65.8349 78.5678 64.2749 78.167C60.2399 77.1428 56.9849 75.1389 54.7649 72.3037C54.1349 71.5021 53.0999 69.8396 53.0999 69.6318C53.0999 69.5725 53.2499 69.4389 53.4449 69.3498C53.6399 69.2607 54.0449 69.0084 54.3749 68.8154C54.7049 68.6225 55.3049 68.2662 55.7099 68.0584C56.1149 67.8506 57.2849 67.1678 58.3049 66.5592C59.3249 65.9506 60.2549 65.4607 60.3599 65.4607C60.4649 65.4607 60.6599 65.6686 60.8099 65.9209C61.7099 67.4201 63.8099 69.335 65.2949 69.9881C66.2099 70.374 68.2349 70.8045 69.2099 70.8045C70.1099 70.8045 71.7599 70.4186 72.6449 70.0178C73.5899 69.5873 74.0699 69.1568 74.6399 68.2959C75.0299 67.6873 75.0749 67.524 75.0599 66.3662C75.0599 65.2975 74.9999 65.0006 74.6999 64.5107C73.8599 63.1451 72.7199 62.4326 68.0999 60.4139C63.3299 58.3209 61.1849 57.074 59.4449 55.3967C58.1549 54.1498 57.8999 53.8084 57.0899 52.2498C56.0399 50.2459 55.9049 49.5928 55.8899 46.6092C55.8749 44.5162 55.9199 43.8334 56.1449 43.1209C56.4599 42.0521 57.4799 39.9889 57.9449 39.4693C58.9049 38.3561 59.2499 38.0146 59.9249 37.4654C61.9649 35.8029 65.1449 34.7045 68.1899 34.6006C68.5349 34.6006 69.6749 34.66 70.7399 34.7342C73.7999 34.9865 75.8849 35.7287 77.8949 37.317C79.4099 38.5045 81.7049 41.2951 81.4799 41.6662C81.3299 41.8889 75.3449 45.8373 74.9549 45.9561C74.7149 46.0303 74.5499 45.9412 74.2199 45.5553C72.1799 43.1357 71.3549 42.6162 69.3749 42.4975C67.9649 42.4084 67.2149 42.5717 66.2699 43.1951C65.2799 43.8482 64.7999 44.8428 64.7999 46.2232C64.8149 48.242 65.5949 49.192 68.4749 50.6021C70.3349 51.5076 71.9249 52.2498 72.0449 52.2498C72.2249 52.2498 76.0799 54.1498 77.0849 54.7436C81.7649 57.46 83.6699 60.2506 84.1649 65.06C84.5249 68.6818 83.4899 71.992 81.2399 74.3373V74.3373Z" fill="white"/>
</svg>
