<svg width="2301" height="1080" viewBox="0 0 2301 1080" fill="none" xmlns="http://www.w3.org/2000/svg">
<path d="M2301 1080H0V0H2301V1080ZM1151.09 477.001C1149.72 476.985 1148.44 477.167 1147.11 477.534C1147.04 477.554 1146.97 477.574 1146.9 477.594C1146.09 477.832 1145.32 478.143 1144.56 478.522C1144.49 478.556 1144.43 478.589 1144.36 478.622C1142.47 479.58 1140.68 480.799 1139.23 482.462C1139.15 482.554 1139.07 482.644 1139 482.733C1138.87 482.879 1138.87 482.879 1138.74 483.021C1135.22 487.122 1132.82 493.613 1132.96 499.284C1134.16 499.403 1135.23 499.909 1136.1 500.837C1136.17 500.918 1136.24 500.997 1136.31 501.076C1138.76 503.779 1140.2 507.493 1141.21 511.096C1141.24 511.202 1141.27 511.305 1141.3 511.407C1142.77 516.61 1143.61 521.95 1144.05 527.372C1144.07 527.508 1144.07 527.508 1144.08 527.642C1144.41 531.758 1144.48 536.027 1144.11 540.141C1144.1 540.264 1144.09 540.384 1144.08 540.503C1143.53 546.609 1142.41 554.337 1138.14 558.755C1138.07 558.822 1138.01 558.886 1137.94 558.951C1137.74 559.16 1137.53 559.367 1137.32 559.57C1135.19 561.573 1132.57 562.421 1129.79 562.219C1128.71 562.035 1127.66 561.47 1126.94 560.539C1126.87 560.429 1126.8 560.322 1126.73 560.216C1126.27 559.62 1125.92 559.031 1125.61 558.326C1125.57 558.216 1125.52 558.109 1125.48 558.002C1123.36 549.982 1123.36 549.982 1123.35 541.552C1123.35 541.428 1123.35 541.307 1123.35 541.188C1123.35 538.737 1123.43 536.294 1123.57 533.848C1123.58 533.745 1123.58 533.645 1123.59 533.545C1123.87 528.569 1124.32 523.612 1124.86 518.662C1124.88 518.459 1124.88 518.459 1124.91 518.26C1125.7 511.044 1126.68 503.855 1127.7 496.675C1128.13 493.685 1128.55 490.694 1128.94 487.698C1128.97 487.473 1129 487.247 1129.03 487.021C1129.23 485.529 1129.41 484.035 1129.58 482.537C1129.59 482.375 1129.61 482.212 1129.63 482.05C1129.65 481.824 1129.68 481.597 1129.7 481.37C1129.71 481.262 1129.71 481.262 1129.72 481.156C1129.79 480.507 1129.79 480.507 1129.79 478.728H1088C1089.44 508.74 1090.79 518.271 1092.2 527.801C1095.98 568.76 1095.56 578.255 1093.51 587.514C1093.5 587.587 1093.48 587.659 1093.46 587.73C1092.63 591.47 1091.59 595.325 1089.84 598.688C1089.8 598.762 1089.76 598.834 1089.73 598.905C1089.34 599.651 1088.94 600.383 1088.49 601.086C1088.3 601.371 1088.14 601.645 1088 601.962C1091.8 601.964 1095.59 601.966 1099.39 601.967C1099.84 601.967 1100.3 601.968 1100.76 601.968C1100.85 601.968 1100.95 601.968 1101.04 601.968C1102.52 601.968 1104 601.969 1105.47 601.97C1107 601.971 1108.52 601.971 1110.04 601.972C1110.98 601.972 1111.92 601.972 1112.86 601.973C1113.51 601.973 1114.16 601.974 1114.81 601.974C1115.19 601.974 1115.56 601.974 1115.94 601.975H1117.36C1121.97 601.987 1126.89 600.872 1130.86 598.187C1130.92 598.144 1130.98 598.103 1131.04 598.062C1131.89 597.485 1132.72 596.897 1133.48 596.182C1133.64 596.027 1133.81 595.875 1133.98 595.728C1134.82 594.998 1135.58 594.189 1136.28 593.305C1136.39 593.168 1136.49 593.031 1136.6 592.896C1143.75 581.516 1145.55 572.334 1147.06 563.5C1147.27 562.243 1147.49 560.986 1147.71 559.73C1147.77 559.346 1147.84 558.961 1147.91 558.576C1148.18 556.961 1148.48 555.355 1148.84 553.76C1148.85 553.685 1148.87 553.613 1148.89 553.54C1149.34 551.545 1149.86 549.579 1150.79 547.776C1151.35 546.805 1152.14 546.044 1153.18 545.773C1153.81 545.689 1154.45 545.786 1154.97 546.176C1155.09 546.292 1155.09 546.292 1155.2 546.406C1155.28 546.478 1155.35 546.548 1155.43 546.617C1157.18 551.067 1157.18 551.067 1157.11 556.071C1157.11 556.154 1157.11 556.235 1157.11 556.315C1157.14 557.961 1157.1 559.604 1157.06 561.249C1157.06 561.368 1157.05 561.483 1157.05 561.599C1157.02 562.696 1156.99 563.793 1156.96 564.891C1156.88 567.572 1156.81 570.252 1156.81 572.935C1156.81 573.112 1156.81 573.112 1156.81 573.286C1156.81 580.383 1156.94 588.479 1160.26 594.786C1160.3 594.86 1160.33 594.932 1160.37 595.004C1160.99 596.162 1161.7 597.211 1162.56 598.157C1165.83 601.617 1169.84 602.014 1174.16 602C1174.67 601.998 1175.18 601.998 1175.69 601.998C1176.58 601.998 1177.46 601.998 1178.35 601.996C1179.64 601.994 1180.93 601.993 1182.23 601.992C1184.32 601.992 1186.42 601.989 1188.51 601.986C1190.55 601.983 1192.59 601.981 1194.63 601.979C1194.76 601.979 1194.89 601.98 1195.01 601.979C1195.65 601.979 1196.28 601.979 1196.91 601.979C1202.27 601.975 1207.64 601.969 1213 601.962C1212.96 601.903 1212.93 601.846 1212.9 601.789C1212.84 601.674 1212.83 601.674 1212.77 601.562C1212.69 601.414 1212.6 601.265 1212.52 601.118C1207.8 592.963 1206.12 583.623 1205.46 574.946C1205.45 574.78 1205.44 574.614 1205.42 574.447C1205.23 571.951 1205.22 569.455 1205.22 566.951C1205.22 566.866 1205.21 566.782 1205.21 566.699C1205.21 564.536 1205.24 562.378 1205.32 560.217C1205.32 560.02 1205.33 559.824 1205.34 559.627C1206.09 546.479 1207.33 537.274 1208.69 528.07C1211.67 507.414 1212.59 497.31 1212.91 487.168C1212.92 487.034 1212.92 486.903 1212.93 486.772C1212.98 484.995 1213 483.219 1213 481.44C1213 481.212 1213 480.983 1213 480.754C1213 480.079 1213 479.403 1213 478.728C1207.8 478.725 1202.6 478.723 1197.4 478.722H1195.15C1193.12 478.721 1191.09 478.721 1189.07 478.72C1186.98 478.719 1184.9 478.718 1182.81 478.718C1181.53 478.718 1180.24 478.717 1178.95 478.716C1178.07 478.715 1177.18 478.715 1176.29 478.715C1175.77 478.715 1175.26 478.715 1174.75 478.715C1174.27 478.714 1173.8 478.714 1173.32 478.714C1173.15 478.714 1172.97 478.715 1172.8 478.715C1172.56 478.714 1172.32 478.714 1172.08 478.714H1171.67C1171.45 478.715 1171.27 478.659 1171.11 478.833C1171.11 479.039 1171.11 479.245 1171.12 479.45C1171.13 479.583 1171.13 479.583 1171.14 479.713C1171.19 480.681 1171.27 481.642 1171.38 482.604C1171.39 482.74 1171.39 482.74 1171.41 482.874C1171.65 485.066 1171.94 487.248 1172.25 489.43C1172.32 489.982 1172.4 490.535 1172.48 491.088C1172.79 493.32 1173.1 495.552 1173.42 497.783C1175.92 515.94 1177.12 525.93 1177.7 535.968C1177.71 536.076 1177.72 536.181 1177.72 536.286C1177.87 538.809 1177.93 541.329 1177.94 543.856V545.242C1177.93 547.475 1177.85 549.704 1177.6 551.924C1177.58 552.046 1177.57 552.165 1177.55 552.283C1177.2 555.195 1176.68 558.64 1174.75 560.853C1174.69 560.923 1174.62 560.991 1174.56 561.06C1174.43 561.197 1174.29 561.331 1174.16 561.461C1173.05 562.349 1171.63 562.371 1170.32 562.171C1170.23 562.151 1170.14 562.132 1170.05 562.113C1168.88 561.862 1167.65 561.268 1166.79 560.339C1166.7 560.224 1166.7 560.223 1166.6 560.11C1164.1 557.239 1163.91 552.597 1163.9 548.85C1163.9 548.76 1163.9 548.673 1163.9 548.587C1164.46 537.8 1164.46 537.8 1165.97 527.107C1166.7 521.541 1167.45 515.978 1167.92 510.374C1167.93 510.204 1167.93 510.204 1167.95 510.037C1168.34 505.152 1168.52 500.118 1167.99 495.237C1167.97 495.045 1167.97 495.045 1167.95 494.856C1167.68 492.516 1167.26 490.137 1166.45 487.944C1166.41 487.821 1166.36 487.701 1166.32 487.582C1165.81 486.181 1165.19 484.842 1164.42 483.599C1162.19 480.18 1158.84 478.158 1155.13 477.401C1155.05 477.386 1154.98 477.371 1154.91 477.356C1153.71 477.103 1152.53 477.01 1151.31 477.002C1151.24 477.002 1151.16 477.001 1151.09 477.001Z" fill="black"/>
</svg>
