<svg width="351" height="365" viewBox="0 0 351 365" fill="none" xmlns="http://www.w3.org/2000/svg">
<path d="M28.1258 256.577C32.5406 282.005 42.4267 300.796 54.8314 314.689C35.3252 300.353 18.4567 277.76 12.2718 242.203C12.2718 242.203 -7.92225e-05 129.307 146.318 130.237L146.576 144.96C16.7285 151.888 28.1258 256.577 28.1258 256.577Z" fill="white"/>
<path d="M249.6 21.9663H199.113L196.126 259.659C186.793 296.671 145.45 294.817 145.45 294.817C121.445 295.108 108.852 285.346 102.254 274.913C109.117 278.392 118.038 280.581 129.596 280.442C129.596 280.442 170.938 282.29 180.286 245.284L183.259 7.5918H246.927C246.927 7.5918 247.375 13.4125 249.6 21.9663ZM335.146 89.8342V103.019C311.694 99.4826 295.784 88.4486 285.016 75.6241C297.351 84.0008 313.646 89.7203 335.146 89.8342Z" fill="white"/>
<path d="M163.186 204.141C163.186 204.141 96.3347 196.739 94.9704 250.403C94.9704 250.403 94.7815 263.101 102.261 274.919C78.7176 263.012 79.1304 236.029 79.1304 236.029C80.4947 182.364 147.339 189.767 147.339 189.767L146.577 144.96C151.565 144.707 156.749 144.587 162.158 144.619L163.186 204.141ZM285.016 75.6182C262.914 60.5984 253.511 37.0373 249.6 21.9668H262.767C262.774 21.9668 265.097 51.8737 285.016 75.6182Z" fill="white"/>
<path d="M351 104.209V160.961C351 160.961 306.439 161.777 262.774 134.23L261.872 253.08C261.872 253.08 260.395 345.401 155.007 353.727C155.007 353.727 93.0042 357.409 54.8384 314.684C92.1787 342.142 139.153 339.352 139.153 339.352C244.541 331.02 246.018 238.705 246.018 238.705L246.934 119.856C290.592 147.403 335.153 146.586 335.153 146.586V103.014C340.085 103.767 345.368 104.178 351 104.209Z" fill="white"/>
</svg>
