<svg width="927" height="306" viewBox="0 0 927 306" fill="none" xmlns="http://www.w3.org/2000/svg">
<path d="M194.56 37.7936L184.073 32.7295C153.468 17.9498 118.25 15.9186 86.1487 27.0819C34.5701 45.0187 0 93.6415 0 148.25V160.136C0 240.219 64.9201 305.139 145.003 305.139H785.583C863.253 305.139 926.217 242.174 926.217 164.504C926.217 113.295 898.383 66.1345 853.553 41.385L818.007 21.7612C764.163 -7.96449 698.656 -7.1901 645.53 23.8001L632.235 31.5554C589.307 56.5969 537.745 62.1717 490.457 46.8842L452.371 34.572C417.196 23.2005 379.32 23.2794 344.192 34.7971L311.326 45.5734C272.863 58.1846 231.009 55.396 194.56 37.7936Z" fill="black"/>
</svg>
