<svg width="927" height="306" viewBox="0 0 927 306" fill="none" xmlns="http://www.w3.org/2000/svg">
<path d="M194.56 37.7939L184.073 32.7297C153.468 17.95 118.25 15.9189 86.1487 27.0822C34.5701 45.0189 0 93.6418 0 148.25V160.136C0 240.219 64.9201 305.139 145.003 305.139H785.583C863.253 305.139 926.217 242.174 926.217 164.504C926.217 113.296 898.383 66.1347 853.553 41.3852L818.007 21.7614C764.163 -7.96424 698.656 -7.18985 645.53 23.8003L632.235 31.5556C589.307 56.5972 537.745 62.1719 490.457 46.8845L452.371 34.5722C417.196 23.2008 379.32 23.2796 344.192 34.7973L311.326 45.5737C272.863 58.1849 231.009 55.3963 194.56 37.7939Z" fill="white"/>
</svg>
