<svg width="957" height="314" viewBox="0 0 957 314" fill="none" xmlns="http://www.w3.org/2000/svg">
<path d="M211.79 37.3673L187.438 28.3014C157.251 17.063 124.097 16.6611 93.6458 27.1646C37.6063 46.4945 0 99.2468 0 158.526V165.24C0 247.185 66.4297 313.615 148.375 313.615H812.72C892.168 313.615 956.575 249.209 956.575 169.76C956.575 117.202 927.911 68.8275 881.812 43.5841L841.43 21.4715C787.866 -7.85985 722.874 -7.09481 670.015 23.4893L650.348 34.8685C607.643 59.5775 556.482 65.0789 509.5 50.014L459.21 33.888C427.905 23.8499 394.402 22.8478 362.553 30.9968L316.056 42.8936C281.55 51.7225 245.17 49.7942 211.79 37.3673Z" fill="#595959"/>
</svg>
